<mxfile host="app.diagrams.net" modified="2021-02-03T07:12:56.003Z" agent="5.0 (Macintosh; Intel Mac OS X 11_1_0) AppleWebKit/537.36 (KHTML, like Gecko) Chrome/88.0.4324.96 Safari/537.36" etag="Tm2XCTsO4x1FcTsY6hZv" version="14.2.9" type="github">
  <diagram id="kgpKYQtTHZ0yAKxKKP6v" name="Page-1">
    <mxGraphModel dx="988" dy="643" grid="1" gridSize="10" guides="1" tooltips="1" connect="1" arrows="1" fold="1" page="1" pageScale="1" pageWidth="850" pageHeight="1100" math="0" shadow="0">
      <root>
        <mxCell id="0" />
        <mxCell id="1" parent="0" />
        <mxCell id="3nuBFxr9cyL0pnOWT2aG-1" value="Scraper" style="shape=umlLifeline;perimeter=lifelinePerimeter;container=1;collapsible=0;recursiveResize=0;rounded=0;shadow=0;strokeWidth=1;" parent="1" vertex="1">
          <mxGeometry x="401" y="80" width="100" height="410" as="geometry" />
        </mxCell>
        <mxCell id="3nuBFxr9cyL0pnOWT2aG-2" value="" style="points=[];perimeter=orthogonalPerimeter;rounded=0;shadow=0;strokeWidth=1;" parent="3nuBFxr9cyL0pnOWT2aG-1" vertex="1">
          <mxGeometry x="45" y="70" width="10" height="300" as="geometry" />
        </mxCell>
        <mxCell id="3nuBFxr9cyL0pnOWT2aG-4" value="Pending Queue" style="points=[];perimeter=orthogonalPerimeter;rounded=0;shadow=0;strokeWidth=1;labelPadding=0;horizontal=0;fontSize=8;" parent="3nuBFxr9cyL0pnOWT2aG-1" vertex="1">
          <mxGeometry x="50" y="160" width="20" height="70" as="geometry" />
        </mxCell>
        <mxCell id="3nuBFxr9cyL0pnOWT2aG-5" value="Scraper Impl for&#xa;specific Message&#xa;categories" style="shape=umlLifeline;perimeter=lifelinePerimeter;container=1;collapsible=0;recursiveResize=0;rounded=0;shadow=0;strokeWidth=1;fontSize=9;" parent="1" vertex="1">
          <mxGeometry x="581" y="80" width="100" height="410" as="geometry" />
        </mxCell>
        <mxCell id="3nuBFxr9cyL0pnOWT2aG-6" value="" style="points=[];perimeter=orthogonalPerimeter;rounded=0;shadow=0;strokeWidth=1;" parent="3nuBFxr9cyL0pnOWT2aG-5" vertex="1">
          <mxGeometry x="45" y="80" width="10" height="80" as="geometry" />
        </mxCell>
        <mxCell id="3nuBFxr9cyL0pnOWT2aG-8" value="Request for Update" style="verticalAlign=bottom;endArrow=block;entryX=0;entryY=0;shadow=0;strokeWidth=1;fontSize=10;" parent="1" source="3nuBFxr9cyL0pnOWT2aG-2" target="3nuBFxr9cyL0pnOWT2aG-6" edge="1">
          <mxGeometry relative="1" as="geometry">
            <mxPoint x="556" y="160" as="sourcePoint" />
          </mxGeometry>
        </mxCell>
        <mxCell id="3nuBFxr9cyL0pnOWT2aG-9" value="(if have valid updated message)&#xa;Response " style="verticalAlign=bottom;endArrow=block;shadow=0;strokeWidth=1;fontSize=9;dashed=1;dashPattern=1 1;entryX=1.015;entryY=-0.003;entryDx=0;entryDy=0;entryPerimeter=0;" parent="1" target="3nuBFxr9cyL0pnOWT2aG-4" edge="1">
          <mxGeometry relative="1" as="geometry">
            <mxPoint x="626" y="239.9999999999999" as="sourcePoint" />
            <mxPoint x="481" y="240" as="targetPoint" />
          </mxGeometry>
        </mxCell>
        <mxCell id="yo497B9HciU3n2dd5ejX-3" value="Message Provider&#xa;(Weibo, Twitter, etc,.)" style="shape=umlLifeline;perimeter=lifelinePerimeter;container=1;collapsible=0;recursiveResize=0;rounded=0;shadow=0;strokeWidth=1;fontSize=9;" vertex="1" parent="1">
          <mxGeometry x="761" y="80" width="100" height="410" as="geometry" />
        </mxCell>
        <mxCell id="yo497B9HciU3n2dd5ejX-4" value="" style="points=[];perimeter=orthogonalPerimeter;rounded=0;shadow=0;strokeWidth=1;" vertex="1" parent="yo497B9HciU3n2dd5ejX-3">
          <mxGeometry x="45" y="90" width="10" height="20" as="geometry" />
        </mxCell>
        <mxCell id="yo497B9HciU3n2dd5ejX-6" value="Request for latest Message" style="verticalAlign=bottom;endArrow=block;entryX=0;entryY=0;shadow=0;strokeWidth=1;fontSize=10;" edge="1" parent="1">
          <mxGeometry relative="1" as="geometry">
            <mxPoint x="636" y="170.0000000000001" as="sourcePoint" />
            <mxPoint x="806" y="170.0000000000001" as="targetPoint" />
          </mxGeometry>
        </mxCell>
        <mxCell id="yo497B9HciU3n2dd5ejX-7" value="Response " style="verticalAlign=bottom;endArrow=block;shadow=0;strokeWidth=1;fontSize=10;" edge="1" parent="1" target="3nuBFxr9cyL0pnOWT2aG-6">
          <mxGeometry relative="1" as="geometry">
            <mxPoint x="806" y="189.9999999999999" as="sourcePoint" />
            <mxPoint x="641" y="189.9999999999999" as="targetPoint" />
          </mxGeometry>
        </mxCell>
        <mxCell id="yo497B9HciU3n2dd5ejX-8" value="" style="endArrow=classic;html=1;fontSize=10;exitX=1.129;exitY=0.319;exitDx=0;exitDy=0;exitPerimeter=0;entryX=1.186;entryY=0.458;entryDx=0;entryDy=0;entryPerimeter=0;" edge="1" parent="1">
          <mxGeometry width="50" height="50" relative="1" as="geometry">
            <mxPoint x="636.29" y="207.03999999999996" as="sourcePoint" />
            <mxPoint x="635.8599999999999" y="229.27999999999997" as="targetPoint" />
            <Array as="points">
              <mxPoint x="721" y="207" />
              <mxPoint x="721" y="229" />
            </Array>
          </mxGeometry>
        </mxCell>
        <mxCell id="yo497B9HciU3n2dd5ejX-9" value="Content Deserialization,&lt;br style=&quot;font-size: 8px;&quot;&gt;Deduplication &amp;amp; Update&lt;br style=&quot;font-size: 8px;&quot;&gt;Detection" style="edgeLabel;html=1;align=center;verticalAlign=middle;resizable=0;points=[];fontSize=8;labelBackgroundColor=#ffffff;" vertex="1" connectable="0" parent="yo497B9HciU3n2dd5ejX-8">
          <mxGeometry x="-0.3939" y="1" relative="1" as="geometry">
            <mxPoint x="11.42" y="19.990000000000002" as="offset" />
          </mxGeometry>
        </mxCell>
        <mxCell id="yo497B9HciU3n2dd5ejX-14" value="Send Queue" style="shape=umlLifeline;perimeter=lifelinePerimeter;container=1;collapsible=0;recursiveResize=0;rounded=0;shadow=0;strokeWidth=1;" vertex="1" parent="1">
          <mxGeometry x="221" y="80" width="100" height="410" as="geometry" />
        </mxCell>
        <mxCell id="yo497B9HciU3n2dd5ejX-15" value="" style="points=[];perimeter=orthogonalPerimeter;rounded=0;shadow=0;strokeWidth=1;" vertex="1" parent="yo497B9HciU3n2dd5ejX-14">
          <mxGeometry x="45" y="230" width="10" height="70" as="geometry" />
        </mxCell>
        <mxCell id="3nuBFxr9cyL0pnOWT2aG-3" value="Timer fired" style="verticalAlign=bottom;startArrow=oval;endArrow=block;startSize=8;shadow=0;strokeWidth=1;entryX=-0.063;entryY=-0.001;entryDx=0;entryDy=0;entryPerimeter=0;" parent="1" target="3nuBFxr9cyL0pnOWT2aG-2" edge="1">
          <mxGeometry relative="1" as="geometry">
            <mxPoint x="381" y="80" as="sourcePoint" />
            <Array as="points">
              <mxPoint x="381" y="150" />
            </Array>
          </mxGeometry>
        </mxCell>
        <mxCell id="yo497B9HciU3n2dd5ejX-1" value="" style="shape=mxgraph.bpmn.shape;html=1;verticalLabelPosition=bottom;labelBackgroundColor=#ffffff;verticalAlign=top;align=center;perimeter=ellipsePerimeter;outlineConnect=0;outline=eventNonint;symbol=timer;" vertex="1" parent="1">
          <mxGeometry x="371" y="70" width="20" height="20" as="geometry" />
        </mxCell>
        <mxCell id="yo497B9HciU3n2dd5ejX-20" value="" style="endArrow=classic;html=1;fontSize=10;exitX=1.129;exitY=0.319;exitDx=0;exitDy=0;exitPerimeter=0;entryX=1.186;entryY=0.458;entryDx=0;entryDy=0;entryPerimeter=0;" edge="1" parent="1">
          <mxGeometry width="50" height="50" relative="1" as="geometry">
            <mxPoint x="471.42999999999995" y="260.03999999999996" as="sourcePoint" />
            <mxPoint x="471" y="282.28" as="targetPoint" />
            <Array as="points">
              <mxPoint x="556.14" y="260" />
              <mxPoint x="556.14" y="282" />
            </Array>
          </mxGeometry>
        </mxCell>
        <mxCell id="yo497B9HciU3n2dd5ejX-21" value="Wait for Message to be&lt;br&gt;Approved by Maintainers" style="edgeLabel;html=1;align=center;verticalAlign=middle;resizable=0;points=[];fontSize=8;labelBackgroundColor=#ffffff;" vertex="1" connectable="0" parent="yo497B9HciU3n2dd5ejX-20">
          <mxGeometry x="-0.3939" y="1" relative="1" as="geometry">
            <mxPoint x="11.42" y="19.990000000000002" as="offset" />
          </mxGeometry>
        </mxCell>
        <mxCell id="yo497B9HciU3n2dd5ejX-22" value="" style="endArrow=classic;html=1;fontSize=8;entryX=1.002;entryY=0.003;entryDx=0;entryDy=0;entryPerimeter=0;exitX=0.001;exitY=1;exitDx=0;exitDy=0;exitPerimeter=0;" edge="1" parent="1" source="3nuBFxr9cyL0pnOWT2aG-4" target="yo497B9HciU3n2dd5ejX-15">
          <mxGeometry width="50" height="50" relative="1" as="geometry">
            <mxPoint x="451" y="306" as="sourcePoint" />
            <mxPoint x="401" y="270" as="targetPoint" />
          </mxGeometry>
        </mxCell>
        <mxCell id="yo497B9HciU3n2dd5ejX-23" value="Push Message to Send Queue" style="edgeLabel;html=1;align=center;verticalAlign=middle;resizable=0;points=[];fontSize=8;" vertex="1" connectable="0" parent="yo497B9HciU3n2dd5ejX-22">
          <mxGeometry x="0.1287" relative="1" as="geometry">
            <mxPoint x="17.66" as="offset" />
          </mxGeometry>
        </mxCell>
        <mxCell id="yo497B9HciU3n2dd5ejX-25" value="" style="endArrow=classic;html=1;fontSize=10;exitX=1.129;exitY=0.319;exitDx=0;exitDy=0;exitPerimeter=0;entryX=1.186;entryY=0.458;entryDx=0;entryDy=0;entryPerimeter=0;" edge="1" parent="1">
          <mxGeometry width="50" height="50" relative="1" as="geometry">
            <mxPoint x="276.42999999999995" y="332.03999999999996" as="sourcePoint" />
            <mxPoint x="276" y="354.28" as="targetPoint" />
            <Array as="points">
              <mxPoint x="361.14" y="332" />
              <mxPoint x="361.14" y="354" />
            </Array>
          </mxGeometry>
        </mxCell>
        <mxCell id="yo497B9HciU3n2dd5ejX-26" value="Wait for Message to arrive&lt;br&gt;designated sending time" style="edgeLabel;html=1;align=center;verticalAlign=middle;resizable=0;points=[];fontSize=8;labelBackgroundColor=#ffffff;" vertex="1" connectable="0" parent="yo497B9HciU3n2dd5ejX-25">
          <mxGeometry x="-0.3939" y="1" relative="1" as="geometry">
            <mxPoint x="11.42" y="19.990000000000002" as="offset" />
          </mxGeometry>
        </mxCell>
        <mxCell id="yo497B9HciU3n2dd5ejX-27" value="native-backend" style="shape=umlLifeline;perimeter=lifelinePerimeter;container=1;collapsible=0;recursiveResize=0;rounded=0;shadow=0;strokeWidth=1;fontSize=12;dashed=1;dashPattern=1 2;" vertex="1" parent="1">
          <mxGeometry x="40" y="80" width="100" height="410" as="geometry" />
        </mxCell>
        <mxCell id="yo497B9HciU3n2dd5ejX-28" value="" style="points=[];perimeter=orthogonalPerimeter;rounded=0;shadow=0;strokeWidth=1;" vertex="1" parent="yo497B9HciU3n2dd5ejX-27">
          <mxGeometry x="45" y="300" width="10" height="70" as="geometry" />
        </mxCell>
        <mxCell id="yo497B9HciU3n2dd5ejX-29" value="" style="endArrow=classic;html=1;fontSize=8;exitX=0.001;exitY=1;exitDx=0;exitDy=0;exitPerimeter=0;" edge="1" parent="1" target="yo497B9HciU3n2dd5ejX-28">
          <mxGeometry width="50" height="50" relative="1" as="geometry">
            <mxPoint x="265" y="379.9999999999999" as="sourcePoint" />
            <mxPoint x="100" y="380" as="targetPoint" />
          </mxGeometry>
        </mxCell>
        <mxCell id="yo497B9HciU3n2dd5ejX-30" value="Push Message to native-backend" style="edgeLabel;html=1;align=center;verticalAlign=middle;resizable=0;points=[];fontSize=8;" vertex="1" connectable="0" parent="yo497B9HciU3n2dd5ejX-29">
          <mxGeometry x="0.1287" relative="1" as="geometry">
            <mxPoint x="17.66" as="offset" />
          </mxGeometry>
        </mxCell>
        <mxCell id="yo497B9HciU3n2dd5ejX-31" value="" style="endArrow=classic;html=1;fontSize=10;exitX=1.129;exitY=0.319;exitDx=0;exitDy=0;exitPerimeter=0;entryX=1.186;entryY=0.458;entryDx=0;entryDy=0;entryPerimeter=0;" edge="1" parent="1">
          <mxGeometry width="50" height="50" relative="1" as="geometry">
            <mxPoint x="95.42999999999995" y="400.03999999999996" as="sourcePoint" />
            <mxPoint x="95" y="422.28" as="targetPoint" />
            <Array as="points">
              <mxPoint x="180.14" y="400" />
              <mxPoint x="180.14" y="422" />
            </Array>
          </mxGeometry>
        </mxCell>
        <mxCell id="yo497B9HciU3n2dd5ejX-32" value="Publish Message to the&lt;br&gt;corresponding SNS Topic" style="edgeLabel;html=1;align=center;verticalAlign=middle;resizable=0;points=[];fontSize=8;labelBackgroundColor=#ffffff;" vertex="1" connectable="0" parent="yo497B9HciU3n2dd5ejX-31">
          <mxGeometry x="-0.3939" y="1" relative="1" as="geometry">
            <mxPoint x="11.42" y="19.990000000000002" as="offset" />
          </mxGeometry>
        </mxCell>
      </root>
    </mxGraphModel>
  </diagram>
</mxfile>
